<svg xmlns="http://www.w3.org/2000/svg" width="252" height="60"><path fill-rule="evenodd" clip-rule="evenodd" fill="#FFF" d="M214.795 31.15c-.41.903-.803 1.735-1.176 2.496-.373.761-.789 1.415-1.244 1.961s-.988.976-1.6 1.286-1.363.464-2.255.464c-1.084 0-1.96-.136-2.625-.41V35.54a6.216 6.216 0 0 0 2.488.506c.656 0 1.219-.111 1.69-.334.468-.224.904-.584 1.304-1.081.4-.496.889-1.328 1.463-2.495l-7.957-15.04h1.654l6.111 11.676c.319.63.606 1.282.862 1.956h.054l.342-.834 5.742-12.797h1.559l-6.412 14.054zm-15.332 2.195c-1.244.625-2.76.936-4.547.936h-.15v3.076h-1.395v-3.076h-.246c-1.76 0-3.252-.31-4.477-.93-1.226-.619-2.154-1.49-2.783-2.61s-.943-2.462-.943-4.02c0-1.422.318-2.704.957-3.848.639-1.144 1.555-2.031 2.748-2.66s2.607-.943 4.238-.943h.506v-2.461h1.395v2.46h.588c2.505 0 4.445.643 5.818 1.928 1.371 1.285 2.057 3.073 2.057 5.36 0 1.586-.317 2.958-.95 4.115-.634 1.158-1.572 2.049-2.816 2.673zm-6.092-12.927h-.56c-1.997 0-3.559.557-4.69 1.668-1.13 1.112-1.695 2.63-1.695 4.553 0 2.069.586 3.669 1.758 4.799 1.17 1.13 2.826 1.695 4.968 1.695h.22V20.418zm6.7 1.6c-1.094-1.067-2.667-1.6-4.717-1.6h-.588v12.715h.205c2.15 0 3.812-.568 4.984-1.702 1.17-1.135 1.756-2.742 1.756-4.82 0-1.996-.547-3.527-1.64-4.593zm-22.696-3.952c-2.506 0-4.48.803-5.92 2.407-1.44 1.604-2.16 3.8-2.16 6.59 0 2.853.68 5.068 2.037 6.644 1.357 1.577 3.299 2.365 5.824 2.365 1.678 0 3.217-.214 4.621-.642v1.23c-1.322.465-2.97.697-4.949.697-2.807 0-5.017-.906-6.63-2.72-1.614-1.814-2.42-4.348-2.42-7.602 0-2.032.384-3.823 1.156-5.373.77-1.549 1.877-2.745 3.322-3.588 1.443-.844 3.123-1.265 5.037-1.265 1.951 0 3.695.365 5.236 1.093l-.56 1.258a10.154 10.154 0 0 0-4.594-1.094zm-25.266 19.018h-1.408V18.408h-6.494v-1.312h14.397v1.312h-6.495v18.676zm-12.223-12.988c0-1.477.059-3.072.178-4.785h-.11l-11.853 17.773h-1.394V17.096h1.34v13.07c0 .93-.038 2.488-.11 4.676h.082l11.813-17.746h1.408v19.988h-1.354V24.096zm-17.91 12.988l-9.884-10.186v10.186h-1.395V17.096h1.395v9.68l9.611-9.68h1.846l-9.666 9.68 9.994 10.308h-1.9zm-18.292-12.988c0-1.477.059-3.072.177-4.785h-.109L91.898 37.084h-1.394V17.096h1.34v13.07c0 .93-.037 2.488-.11 4.676h.082l11.813-17.746h1.408v19.988h-1.353V24.096zM68.99 31.192l-.252-.453.274-.44.526.013.252.453-.274.44-.526-.013zm-4.7 2.49l-.474-.852.516-.828.988.024.473.852-.515.827-.988-.023zm-6.133 2.96l-.754-1.359.822-1.32 1.576.039.755 1.357-.822 1.32-1.577-.037zm-3.424-2.606l-.303-.547-1.152 1.849-2.914-.07-1.394-2.51 1.491-2.394-.696-1.254.937-1.504 1.797.043.86 1.548-.732 1.174.775.019.816 1.467.594-.956 1.846.045.883 1.59-.962 1.545-1.846-.045zm-12.788.105l-2.188-3.938 2.383-3.825 4.57.11 2.188 3.937-2.383 3.826-4.57-.11zm-.738-9.02l-.667 1.07-1.797-.043-.86-1.548.936-1.504 1.239.03-.287-.516 1.05-1.685-1.802-.044-.884-1.589.963-1.546 1.845.046.883 1.589-.493.79 2.87.071 1.395 2.509-1.52 2.44-2.871-.07zm-.681-8.4l-.755-1.358.822-1.32 1.577.039.754 1.357-.822 1.32-1.576-.038zm-4.6-4.087l-.473-.852.515-.827.989.024.473.851-.516.828-.988-.024zm.91 25.062l-1.281-2.307 1.519-2.439 2.913.071 1.386 2.494 1.16.028.86 1.548-.937 1.504-1.797-.044-.546-.984-.25.402-2.257-.055.77 1.387-.962 1.545-1.845-.045-.883-1.59.962-1.544 1.188.03zm-5.126 3.831l-.754-1.357.822-1.32 1.576.039.754 1.357-.821 1.32-1.577-.039zm.1-32.134l-.251-.454.274-.44.526.013.252.453-.275.44-.525-.012zm.547 36.164l.473.851-.515.828-.989-.024-.473-.85.516-.829.988.024zm-.764 5.05l.251.454-.274.44-.526-.013-.252-.453.274-.44.527.012z"/></svg>